<svg width="6022" height="3211" viewBox="0 0 6022 3211" fill="none" xmlns="http://www.w3.org/2000/svg">
<path d="M6022 1984.06C6022 2661.66 5488.07 3211 4829.16 3211H1193.11C534.069 3211 0 2661.66 0 1984.06C0 1306.44 534.069 756.833 1193.11 756.833C1239.48 756.833 1285.2 759.662 1330 765.061C1484.84 319.065 1899.3 0 2385.96 0C2778.03 0 3123.21 207.096 3323.5 520.644C3451.99 453.674 3597.54 415.945 3751.46 415.945C4060.07 415.945 4334.25 567.384 4507.43 801.967C4609.74 772.607 4717.55 756.833 4829.02 756.833C5487.93 756.833 6022 1306.17 6022 1984.06Z" fill="#F5F0E9"/>
</svg>
