<svg width="761" height="761" viewBox="0 0 761 761" fill="none" xmlns="http://www.w3.org/2000/svg">
<path d="M317.083 348.792V539.042" stroke="#0A1123" stroke-width="45" stroke-linecap="round" stroke-linejoin="round"/>
<path d="M443.917 348.792V539.042" stroke="#0A1123" stroke-width="45" stroke-linecap="round" stroke-linejoin="round"/>
<path d="M602.458 190.25V634.167C602.458 650.986 595.777 667.116 583.884 679.009C571.991 690.902 555.861 697.583 539.042 697.583H221.958C205.139 697.583 189.009 690.902 177.116 679.009C165.223 667.116 158.542 650.986 158.542 634.167V190.25" stroke="#0A1123" stroke-width="45" stroke-linecap="round" stroke-linejoin="round"/>
<path d="M95.125 190.25H665.875" stroke="#0A1123" stroke-width="45" stroke-linecap="round" stroke-linejoin="round"/>
<path d="M253.667 190.25V126.834C253.667 110.015 260.348 93.8842 272.241 81.9913C284.134 70.0984 300.264 63.417 317.083 63.417H443.917C460.736 63.417 476.866 70.0984 488.759 81.9913C500.652 93.8842 507.333 110.015 507.333 126.834V190.25" stroke="#0A1123" stroke-width="45" stroke-linecap="round" stroke-linejoin="round"/>
</svg>
