<svg width="6508" height="3187" viewBox="0 0 6508 3187" fill="none" xmlns="http://www.w3.org/2000/svg">
<path d="M6507.13 1969.21C6507.13 2641.73 5930.11 3187 5218.14 3187H1289.11C577.143 3187 0 2641.73 0 1969.21C0 1296.69 577.143 751.18 1289.11 751.18C1339.27 751.18 1388.53 753.967 1437.02 759.3C1604.56 316.688 2052.26 0 2578.22 0C3001.94 0 3374.85 205.55 3591.39 516.663C3730.32 450.247 3887.47 412.797 4053.85 412.797C4387.26 412.797 4683.59 563.082 4870.63 796.023C4981.21 766.814 5097.69 751.301 5218.14 751.301C5930.11 751.301 6507.13 1296.57 6507.13 1969.21Z" fill="#F5F0E9"/>
<path d="M3890.41 2023.99C4206.46 2023.99 4462.67 1781.93 4462.67 1483.33C4462.67 1184.73 4206.46 942.671 3890.41 942.671C3574.35 942.671 3318.14 1184.73 3318.14 1483.33C3318.14 1781.93 3574.35 2023.99 3890.41 2023.99Z" stroke="#0A1123" stroke-width="33" stroke-miterlimit="10" stroke-linecap="round"/>
<path d="M3890.41 1363.47C3949.5 1363.47 3997.4 1318.22 3997.4 1262.39C3997.4 1206.57 3949.5 1161.31 3890.41 1161.31C3831.32 1161.31 3783.42 1206.57 3783.42 1262.39C3783.42 1318.22 3831.32 1363.47 3890.41 1363.47Z" fill="#0A1123"/>
<path d="M2452.36 2023.99C2768.42 2023.99 3024.63 1781.93 3024.63 1483.33C3024.63 1184.73 2768.42 942.671 2452.36 942.671C2136.31 942.671 1880.1 1184.73 1880.1 1483.33C1880.1 1781.93 2136.31 2023.99 2452.36 2023.99Z" stroke="#0A1123" stroke-width="33" stroke-miterlimit="10" stroke-linecap="round"/>
<path d="M2452.37 1363.47C2511.46 1363.47 2559.36 1318.22 2559.36 1262.39C2559.36 1206.57 2511.46 1161.31 2452.37 1161.31C2393.28 1161.31 2345.38 1206.57 2345.38 1262.39C2345.38 1318.22 2393.28 1363.47 2452.37 1363.47Z" fill="#0A1123"/>
<path d="M3171.39 2709.59C3217.87 2709.59 3255.54 2664.34 3255.54 2608.51C3255.54 2552.69 3217.87 2507.44 3171.39 2507.44C3124.91 2507.44 3087.24 2552.69 3087.24 2608.51C3087.24 2664.34 3124.91 2709.59 3171.39 2709.59Z" stroke="#0A1123" stroke-width="33" stroke-miterlimit="10" stroke-linecap="round"/>
<path d="M2093.18 1080.59C1938.86 1224.57 1644.45 1140.22 1602.11 939.033C1638.8 970.787 1674.47 997.571 1711.67 1019.75C1826.99 1089.92 1958.48 1101.56 2093.18 1080.47V1080.59Z" fill="#0A1123"/>
<path d="M4247.68 1080.6C4382.37 1101.69 4513.86 1090.06 4629.19 1019.88C4666.39 997.703 4702.05 970.919 4738.74 939.165C4696.41 1140.35 4401.87 1224.71 4247.68 1080.6Z" fill="#0A1123"/>
</svg>
