<svg width="761" height="761" viewBox="0 0 761 761" fill="none" xmlns="http://www.w3.org/2000/svg">
<path d="M380.5 95.125H158.542C141.723 95.125 125.592 101.806 113.699 113.699C101.806 125.592 95.125 141.723 95.125 158.542V602.458C95.125 619.277 101.806 635.408 113.699 647.301C125.592 659.194 141.723 665.875 158.542 665.875H602.458C619.277 665.875 635.408 659.194 647.301 647.301C659.194 635.408 665.875 619.277 665.875 602.458V380.5" stroke="#0A1123" stroke-width="45" stroke-linecap="round" stroke-linejoin="round"/>
<path d="M582.64 83.2342C595.254 70.6199 612.363 63.5332 630.202 63.5332C648.042 63.5332 665.15 70.6199 677.765 83.2342C690.379 95.8486 697.466 112.957 697.466 130.797C697.466 148.636 690.379 165.745 677.765 178.359L391.978 464.178C384.448 471.701 375.147 477.208 364.93 480.191L273.832 506.826C271.104 507.622 268.212 507.669 265.458 506.964C262.705 506.259 260.192 504.826 258.183 502.816C256.173 500.807 254.74 498.294 254.035 495.541C253.33 492.787 253.377 489.895 254.173 487.167L280.808 396.069C283.805 385.86 289.323 376.57 296.853 369.053L582.64 83.2342Z" stroke="#0A1123" stroke-width="45" stroke-linecap="round" stroke-linejoin="round"/>
</svg>
