<svg width="9512" height="3097" viewBox="0 0 9512 3097" fill="none" xmlns="http://www.w3.org/2000/svg">
<g clip-path="url(#clip0_79_915)">
<path d="M3162.63 2638.81C3162.63 2891.8 2953.08 3097 2694.54 3097H1267.87C1009.32 3097 799.769 2891.88 799.769 2638.81C799.769 2385.74 1009.32 2180.62 1267.87 2180.62C1286.1 2180.62 1303.99 2181.66 1321.62 2183.64C1382.42 2017.17 1545 1897.97 1735.96 1897.97C1889.82 1897.97 2025.26 1975.25 2103.86 2092.39C2154.27 2067.37 2211.37 2053.31 2271.82 2053.31C2392.9 2053.31 2500.49 2109.9 2568.43 2197.44C2608.62 2186.49 2650.92 2180.62 2694.62 2180.62C2953.17 2180.62 3162.72 2385.74 3162.72 2638.81H3162.63Z" fill="#8387C3"/>
<path d="M2101.08 2090.04C1916.21 2311.05 1650.82 2465.99 1342.37 2506.03C691.022 2590.51 94.5522 2131.48 10.0291 1480.47C-65.8813 895.919 296.647 355.814 842.843 190.258C572.449 435.088 422.43 804.033 473.103 1193C555.021 1823.99 1133.26 2269.01 1764.58 2187.13C1884.16 2171.72 1997.32 2138.29 2101.28 2090.04H2101.08Z" fill="#E0C58F"/>
<path d="M9580.46 412.787C9301.45 486.858 9241.36 546.711 9167.45 825.573C9093.36 546.711 9033.45 486.658 8754.44 412.787C9033.45 338.718 9093.55 278.862 9167.45 0C9241.58 278.862 9301.45 338.918 9580.46 412.787Z" fill="#E0C58F"/>
<path d="M1505.91 1534.04L1498.3 1244.57L1523.33 1240.77C1604.45 1460.78 1776.3 1630.54 2033.08 1630.54C2166.27 1630.54 2289.85 1545.66 2289.85 1387.51C2289.85 1198.33 2040.89 1109.65 1886.26 1047.99C1687.37 965.111 1521.33 899.451 1521.33 675.639C1521.33 436.415 1714.41 287.676 2017.46 287.676C2160.26 287.676 2287.65 318.505 2388.2 368.753L2396 619.587L2374.77 627.195C2295.66 428.407 2131.42 320.307 1944.15 320.307C1789.72 320.307 1668.15 410.992 1668.15 563.334C1668.15 735.097 1863.23 804.561 2017.66 866.22C2214.54 941.49 2448.28 1028.37 2448.28 1259.79C2448.28 1524.24 2204.93 1670.77 1983 1670.77C1784.12 1670.77 1604.65 1607.12 1506.11 1533.84L1505.91 1534.04Z" fill="#F5F0E9"/>
<path d="M2558.03 1194.51C2558.03 881.814 2808.99 673.622 3073.58 673.622C3312.93 673.622 3587.13 814.552 3587.13 1154.07C3587.13 1493.59 3301.31 1671.16 3073.58 1671.16C2822.62 1671.16 2558.03 1522.62 2558.03 1194.51ZM3392.04 1300.61C3392.04 1055.58 3224 687.033 2975.04 712.056C2806.99 729.471 2751.11 883.816 2751.11 1049.77C2751.11 1277.59 2886.31 1628.72 3141.08 1628.72C3330.35 1628.72 3392.04 1464.76 3392.04 1300.61Z" fill="#F5F0E9"/>
<path d="M3720.3 1624.73C3783.99 1603.5 3797.62 1545.65 3797.62 1406.72V962.906C3797.62 848.998 3768.58 829.781 3720.3 808.562V781.536L3975.1 669.63L3994.33 685.043V847.196C4100.48 760.313 4239.46 673.634 4390.11 673.634C4525.3 673.634 4614.01 725.683 4650.69 849.198C4756.84 762.315 4897.81 673.634 5050.24 673.634C5227.9 673.634 5328.27 766.12 5328.27 991.934V1406.72C5328.27 1545.65 5341.69 1603.5 5405.56 1624.73V1651.75H5054.24V1624.73C5117.93 1603.5 5131.57 1545.65 5131.57 1406.72V1026.56C5131.57 852.802 5075.47 750.707 4932.68 750.707C4841.94 750.707 4759.02 795.147 4656.68 876.024C4664.5 910.857 4668.28 949.292 4668.28 991.934V1406.72C4668.28 1545.65 4681.73 1603.5 4745.6 1624.73V1651.75H4394.29V1624.73C4457.98 1603.5 4471.61 1545.65 4471.61 1406.72V1026.56C4471.61 852.802 4415.74 750.707 4272.72 750.707C4181.99 750.707 4098.88 795.147 3994.73 880.028V1406.72C3994.73 1545.65 4008.14 1603.5 4072.02 1624.73V1651.75H3720.7V1624.73H3720.3Z" fill="#F5F0E9"/>
<path d="M5488.7 1624.73C5552.39 1603.5 5566.02 1545.65 5566.02 1406.72V962.906C5566.02 848.998 5536.98 829.781 5488.7 808.562V781.536L5743.46 669.63L5762.69 685.043V847.196C5868.84 760.313 6007.86 673.634 6158.47 673.634C6336.13 673.634 6455.69 766.12 6455.69 991.934V1406.72C6455.69 1545.65 6469.14 1603.5 6533.01 1624.73V1651.75H6181.7V1624.73C6245.39 1603.5 6259.02 1545.65 6259.02 1406.72V1026.56C6259.02 852.802 6183.7 750.707 6040.9 750.707C5950.17 750.707 5867.24 795.147 5762.91 880.028V1406.72C5762.91 1545.65 5776.32 1603.5 5840.2 1624.73V1651.75H5488.88V1624.73H5488.7Z" fill="#F5F0E9"/>
<path d="M6687.48 1310.23V962.906C6687.48 848.998 6658.44 829.781 6610.16 808.562V781.536L6864.92 669.63L6884.15 685.043V1285.21C6884.15 1491.6 6917.02 1593.9 7065.63 1593.9C7152.55 1593.9 7247.07 1541.85 7341.62 1447.16V962.906C7341.62 848.998 7312.58 829.781 7264.3 808.562V781.536L7519.06 669.63L7538.29 685.043V1406.72C7538.29 1545.65 7551.74 1603.5 7615.62 1624.73V1651.75H7418.73C7368.45 1651.75 7341.4 1624.73 7341.4 1574.48V1487.6C7231.25 1593.7 7098.06 1670.97 6976.49 1670.97C6771.79 1670.97 6686.87 1545.45 6686.87 1310.23H6687.48Z" fill="#F5F0E9"/>
<path d="M7753.21 1576.47L7733.98 1323.63L7753.21 1319.83C7836.13 1505 7975.11 1634.32 8146.99 1636.32C8266.74 1638.33 8343.88 1559.05 8343.88 1470.37C8343.88 1346.85 8245.33 1298.61 8077.48 1246.56C7874.78 1184.9 7749.18 1128.85 7749.18 955.285C7749.18 808.546 7863.15 673.622 8125.76 673.622C8235.69 673.622 8353.48 694.841 8419.17 721.867L8428.8 934.066L8405.53 937.867C8339.84 800.941 8220.28 700.444 8079.26 700.444C7957.7 700.444 7878.6 764.105 7878.6 847.184C7878.6 955.285 7975.11 1001.53 8148.77 1059.38C8303.2 1111.43 8473.04 1157.87 8473.04 1354.66C8473.04 1501.2 8380.3 1667.35 8100.5 1667.35C7959.52 1667.35 7826.32 1624.91 7753 1576.67L7753.21 1576.47Z" fill="#F5F0E9"/>
</g>
<defs>
<clipPath id="clip0_79_915">
<rect width="9512" height="3097" fill="white"/>
</clipPath>
</defs>
</svg>
