<svg width="761" height="761" viewBox="0 0 761 761" fill="none" xmlns="http://www.w3.org/2000/svg">
<path d="M475.625 665.875V412.208C475.625 403.799 472.284 395.734 466.338 389.787C460.391 383.841 452.326 380.5 443.917 380.5H317.083C308.674 380.5 300.609 383.841 294.662 389.787C288.716 395.734 285.375 403.799 285.375 412.208V665.875" stroke="#F5F0E9" stroke-width="15" stroke-linecap="round" stroke-linejoin="round"/>
<path d="M95.125 317.083C95.1228 307.858 97.1332 298.744 101.016 290.376C104.899 282.008 110.561 274.588 117.606 268.633L339.565 78.3829C351.011 68.709 365.513 63.4014 380.5 63.4014C395.487 63.4014 409.989 68.709 421.435 78.3829L643.394 268.633C650.439 274.588 656.101 282.008 659.984 290.376C663.867 298.744 665.877 307.858 665.875 317.083V602.458C665.875 619.277 659.194 635.408 647.301 647.301C635.408 659.194 619.277 665.875 602.458 665.875H158.542C141.723 665.875 125.592 659.194 113.699 647.301C101.806 635.408 95.125 619.277 95.125 602.458V317.083Z" stroke="#F5F0E9" stroke-width="15" stroke-linecap="round" stroke-linejoin="round"/>
</svg>
